<svg width="640" height="640" viewBox="0 0 640 640" fill="none" xmlns="http://www.w3.org/2000/svg" role="img" aria-label="Student Voice Hub logo">
  <defs>
    <linearGradient id="svhGold" x1="120" y1="120" x2="520" y2="520" gradientUnits="userSpaceOnUse">
      <stop offset="0" stop-color="#F7E7A9"/>
      <stop offset="0.5" stop-color="#D4AF37"/>
      <stop offset="1" stop-color="#B88B2A"/>
    </linearGradient>
    <linearGradient id="svhMidnight" x1="80" y1="80" x2="560" y2="560" gradientUnits="userSpaceOnUse">
      <stop offset="0" stop-color="#0B1220"/>
      <stop offset="1" stop-color="#111827"/>
    </linearGradient>
  </defs>

  <rect x="60" y="60" width="520" height="520" rx="120" fill="url(#svhMidnight)"/>
  <rect x="88" y="88" width="464" height="464" rx="100" stroke="url(#svhGold)" stroke-width="4" opacity="0.6"/>

  <path d="M216 196h208l20 58 66 38-24 158a60 60 0 0 1-59 50H213a60 60 0 0 1-59-50l-24-158 66-38 20-58z" fill="#F8FAFC"/>
  <path d="M320 224l-48 62 48 44 48-44-48-62z" fill="#0F172A"/>
  <path d="M272 336l48 40 48-40v124H272V336z" fill="#0F172A"/>

  <circle cx="456" cy="176" r="44" fill="#F8FAFC"/>
  <path d="M438 170h36M438 188h24" stroke="#0F172A" stroke-width="10" stroke-linecap="round"/>

  <path d="M204 248l-48 28" stroke="url(#svhGold)" stroke-width="10" stroke-linecap="round"/>
  <path d="M436 248l48 28" stroke="url(#svhGold)" stroke-width="10" stroke-linecap="round"/>
</svg>
